<svg version="1.1" xmlns="http://www.w3.org/2000/svg" xmlns:xlink="http://www.w3.org/1999/xlink" width="89.37719" height="91.70402" viewBox="0,0,89.37719,91.70402"><g transform="translate(-195.3114,-134.14799)"><g data-paper-data="{&quot;isPaintingLayer&quot;:true}" fill="#9e9e9e" fill-rule="nonzero" stroke-width="0" stroke-linecap="butt" stroke-linejoin="miter" stroke-miterlimit="10" stroke-dasharray="" stroke-dashoffset="0" style="mix-blend-mode: normal"><g><path d="M205.1148,180.34217c0,-19.38939 15.71819,-35.10758 35.10758,-35.10758c19.38939,0 35.10758,15.71819 35.10758,35.10758c0,19.38939 -15.71819,35.10758 -35.10758,35.10758c-19.38939,0 -35.10758,-15.71819 -35.10758,-35.10758zM240.22237,197.26034c7.81291,0 14.14656,-6.33361 14.14656,-14.14656c0,-7.81291 -6.33361,-14.14656 -14.14656,-14.14656c-7.81291,0 -14.14656,6.33361 -14.14656,14.14656c0,7.81291 6.33361,14.14656 14.14656,14.14656z" stroke="#000000"/><path d="M230.05966,150.77788v-16.62989h24.94486v16.62989z" stroke="none"/><path d="M253.13662,152.42806l12.01313,-11.49949l17.24924,18.0197l-12.01313,11.49949z" stroke="none"/><path d="M268.05868,171.22311h16.62992v24.94486h-16.62992z" stroke="none"/><path d="M270.36542,194.23232l11.7591,11.7591l-17.63869,17.63869l-11.7591,-11.7591z" stroke="none"/><path d="M254.32019,209.22209v16.62992h-24.94486v-16.62992z" stroke="none"/><path d="M228.19713,212.45275l-11.7591,11.7591l-17.63869,-17.63869l11.7591,-11.7591z" stroke="none"/><path d="M213.7891,193.63586h-18.47769v-24.94486h18.47766z" stroke="none"/><path d="M212.71734,169.08995l-13.0657,-13.0657l17.63869,-17.63869l13.06567,13.06567z" stroke="none"/></g></g></g></svg>