<svg version="1.1" xmlns="http://www.w3.org/2000/svg" xmlns:xlink="http://www.w3.org/1999/xlink" width="33.56721" height="33.55853" viewBox="0,0,33.56721,33.55853"><defs><radialGradient cx="240.04583" cy="180.36353" r="12.4559" gradientUnits="userSpaceOnUse" id="color-1"><stop offset="0" stop-color="#ffffff"/><stop offset="1" stop-color="#ffffff" stop-opacity="0"/></radialGradient><linearGradient x1="239.96233" y1="179.95988" x2="256.00777" y2="179.95988" gradientUnits="userSpaceOnUse" id="color-2"><stop offset="0" stop-color="#ffffff"/><stop offset="1" stop-color="#ffffff" stop-opacity="0"/></linearGradient><linearGradient x1="240.00779" y1="180.02785" x2="223.96233" y2="180.02785" gradientUnits="userSpaceOnUse" id="color-3"><stop offset="0" stop-color="#ffffff"/><stop offset="1" stop-color="#ffffff" stop-opacity="0"/></linearGradient><linearGradient x1="240.0061" y1="179.95936" x2="247.71048" y2="194.03412" gradientUnits="userSpaceOnUse" id="color-4"><stop offset="0" stop-color="#ffffff"/><stop offset="1" stop-color="#ffffff" stop-opacity="0"/></linearGradient><linearGradient x1="239.9683" y1="180.03186" x2="232.26393" y2="165.9571" gradientUnits="userSpaceOnUse" id="color-5"><stop offset="0" stop-color="#ffffff"/><stop offset="1" stop-color="#ffffff" stop-opacity="0"/></linearGradient><linearGradient x1="239.94648" y1="179.95936" x2="232.24211" y2="194.03413" gradientUnits="userSpaceOnUse" id="color-6"><stop offset="0" stop-color="#ffffff"/><stop offset="1" stop-color="#ffffff" stop-opacity="0"/></linearGradient><linearGradient x1="239.98428" y1="180.03186" x2="247.68866" y2="165.9571" gradientUnits="userSpaceOnUse" id="color-7"><stop offset="0" stop-color="#ffffff"/><stop offset="1" stop-color="#ffffff" stop-opacity="0"/></linearGradient><radialGradient cx="239.80467" cy="180.29803" r="12.4559" gradientUnits="userSpaceOnUse" id="color-8"><stop offset="0" stop-color="#ffffff"/><stop offset="1" stop-color="#ffffff" stop-opacity="0"/></radialGradient><linearGradient x1="240.03105" y1="179.95357" x2="251.3769" y2="191.29941" gradientUnits="userSpaceOnUse" id="color-9"><stop offset="0" stop-color="#ffffff"/><stop offset="1" stop-color="#ffffff" stop-opacity="0"/></linearGradient><linearGradient x1="240.01513" y1="180.03377" x2="228.66928" y2="168.68792" gradientUnits="userSpaceOnUse" id="color-10"><stop offset="0" stop-color="#ffffff"/><stop offset="1" stop-color="#ffffff" stop-opacity="0"/></linearGradient><linearGradient x1="240.06237" y1="179.98415" x2="235.55783" y2="195.38433" gradientUnits="userSpaceOnUse" id="color-11"><stop offset="0" stop-color="#ffffff"/><stop offset="1" stop-color="#ffffff" stop-opacity="0"/></linearGradient><linearGradient x1="239.98437" y1="180.00869" x2="244.48892" y2="164.60851" gradientUnits="userSpaceOnUse" id="color-12"><stop offset="0" stop-color="#ffffff"/><stop offset="1" stop-color="#ffffff" stop-opacity="0"/></linearGradient><linearGradient x1="240.02021" y1="179.94199" x2="224.62003" y2="184.44654" gradientUnits="userSpaceOnUse" id="color-13"><stop offset="0" stop-color="#ffffff"/><stop offset="1" stop-color="#ffffff" stop-opacity="0"/></linearGradient><linearGradient x1="239.99567" y1="180.01998" x2="255.39585" y2="175.51545" gradientUnits="userSpaceOnUse" id="color-14"><stop offset="0" stop-color="#ffffff"/><stop offset="1" stop-color="#ffffff" stop-opacity="0"/></linearGradient><radialGradient cx="239.58134" cy="180.04148" r="12.4559" gradientUnits="userSpaceOnUse" id="color-15"><stop offset="0" stop-color="#ffffff"/><stop offset="1" stop-color="#ffffff" stop-opacity="0"/></radialGradient><linearGradient x1="239.98499" y1="179.95798" x2="239.98499" y2="196.00343" gradientUnits="userSpaceOnUse" id="color-16"><stop offset="0" stop-color="#ffffff"/><stop offset="1" stop-color="#ffffff" stop-opacity="0"/></linearGradient><linearGradient x1="239.91702" y1="180.00344" x2="239.91702" y2="163.95798" gradientUnits="userSpaceOnUse" id="color-17"><stop offset="0" stop-color="#ffffff"/><stop offset="1" stop-color="#ffffff" stop-opacity="0"/></linearGradient><linearGradient x1="239.98551" y1="180.00175" x2="225.91075" y2="187.70613" gradientUnits="userSpaceOnUse" id="color-18"><stop offset="0" stop-color="#ffffff"/><stop offset="1" stop-color="#ffffff" stop-opacity="0"/></linearGradient><linearGradient x1="239.91301" y1="179.96395" x2="253.98777" y2="172.25958" gradientUnits="userSpaceOnUse" id="color-19"><stop offset="0" stop-color="#ffffff"/><stop offset="1" stop-color="#ffffff" stop-opacity="0"/></linearGradient><linearGradient x1="239.98551" y1="179.94212" x2="225.91074" y2="172.23775" gradientUnits="userSpaceOnUse" id="color-20"><stop offset="0" stop-color="#ffffff"/><stop offset="1" stop-color="#ffffff" stop-opacity="0"/></linearGradient><linearGradient x1="239.91301" y1="179.97992" x2="253.98777" y2="187.6843" gradientUnits="userSpaceOnUse" id="color-21"><stop offset="0" stop-color="#ffffff"/><stop offset="1" stop-color="#ffffff" stop-opacity="0"/></linearGradient><radialGradient cx="239.64683" cy="179.80033" r="12.4559" gradientUnits="userSpaceOnUse" id="color-22"><stop offset="0" stop-color="#ffffff"/><stop offset="1" stop-color="#ffffff" stop-opacity="0"/></radialGradient><linearGradient x1="239.9913" y1="180.02671" x2="228.64545" y2="191.37255" gradientUnits="userSpaceOnUse" id="color-23"><stop offset="0" stop-color="#ffffff"/><stop offset="1" stop-color="#ffffff" stop-opacity="0"/></linearGradient><linearGradient x1="239.91109" y1="180.01079" x2="251.25694" y2="168.66494" gradientUnits="userSpaceOnUse" id="color-24"><stop offset="0" stop-color="#ffffff"/><stop offset="1" stop-color="#ffffff" stop-opacity="0"/></linearGradient><linearGradient x1="239.96071" y1="180.05802" x2="224.56054" y2="175.55347" gradientUnits="userSpaceOnUse" id="color-25"><stop offset="0" stop-color="#ffffff"/><stop offset="1" stop-color="#ffffff" stop-opacity="0"/></linearGradient><linearGradient x1="239.93618" y1="179.98003" x2="255.33635" y2="184.48457" gradientUnits="userSpaceOnUse" id="color-26"><stop offset="0" stop-color="#ffffff"/><stop offset="1" stop-color="#ffffff" stop-opacity="0"/></linearGradient><linearGradient x1="240.00287" y1="180.01586" x2="235.49832" y2="164.61568" gradientUnits="userSpaceOnUse" id="color-27"><stop offset="0" stop-color="#ffffff"/><stop offset="1" stop-color="#ffffff" stop-opacity="0"/></linearGradient><linearGradient x1="239.92488" y1="179.99132" x2="244.42942" y2="195.3915" gradientUnits="userSpaceOnUse" id="color-28"><stop offset="0" stop-color="#ffffff"/><stop offset="1" stop-color="#ffffff" stop-opacity="0"/></linearGradient></defs><g transform="translate(-223.21639,-163.22073)"><g data-paper-data="{&quot;isPaintingLayer&quot;:true}" fill-rule="nonzero" stroke="none" stroke-width="0" stroke-linejoin="miter" stroke-miterlimit="10" stroke-dasharray="" stroke-dashoffset="0" style="mix-blend-mode: normal"><path d="M252.38199,180.36353c0,6.87921 -5.52308,12.4559 -12.33614,12.4559c-6.81306,0 -12.33614,-5.5767 -12.33614,-12.4559c0,-6.87921 5.52308,-12.4559 12.33614,-12.4559c6.81306,0 12.33614,5.5767 12.33614,12.4559z" fill="url(#color-1)" stroke-linecap="butt"/><g stroke-linecap="round"><path d="M256.00777,184.90316l-16.04545,-5.02802l16,-4.85854" data-paper-data="{&quot;origPos&quot;:null}" fill="url(#color-2)"/><path d="M224.00779,175.08457l16,4.85854l-16.04545,5.02802" data-paper-data="{&quot;origPos&quot;:null,&quot;index&quot;:null}" fill="url(#color-3)"/></g><g data-paper-data="{&quot;origRot&quot;:0}" stroke-linecap="round"><path d="M243.37433,196.40769l-3.29389,-16.48902l11.94437,11.70202" data-paper-data="{&quot;origPos&quot;:null}" fill="url(#color-4)"/><path d="M236.6219,163.62339l3.42073,16.36777l-12.11486,-11.66052" data-paper-data="{&quot;origPos&quot;:null,&quot;index&quot;:null}" fill="url(#color-5)"/></g><g data-paper-data="{&quot;origRot&quot;:0,&quot;index&quot;:null}" stroke-linecap="round"><path d="M227.92778,191.62069l11.94438,-11.70202l-3.29389,16.48901" data-paper-data="{&quot;origPos&quot;:null}" fill="url(#color-6)"/><path d="M252.02481,168.33066l-12.11486,11.66052l3.42074,-16.36777" data-paper-data="{&quot;origPos&quot;:null,&quot;index&quot;:null}" fill="url(#color-7)"/></g><path d="M248.52765,189.02102c-4.86434,4.86434 -12.71306,4.90224 -17.53062,0.08468c-4.81756,-4.81756 -4.77965,-12.66629 0.08468,-17.53062c4.86434,-4.86434 12.71306,-4.90224 17.53062,-0.08468c4.81756,4.81756 4.77965,12.66629 -0.08468,17.53062z" fill="url(#color-8)" stroke-linecap="butt"/><g stroke-linecap="round"><path d="M247.88147,194.79484l-7.7905,-14.90119l14.74922,7.8782" data-paper-data="{&quot;origPos&quot;:null}" fill="url(#color-9)"/><path d="M232.19685,165.22464l7.8782,14.74922l-14.90119,-7.7905" data-paper-data="{&quot;origPos&quot;:null,&quot;index&quot;:null}" fill="url(#color-10)"/></g><g data-paper-data="{&quot;origRot&quot;:0}" stroke-linecap="round"><path d="M230.81334,193.99657l9.33037,-13.98863l0.17137,16.72052" data-paper-data="{&quot;origPos&quot;:null}" fill="url(#color-11)"/><path d="M249.22064,166.03989l-9.15494,13.99258l-0.32127,-16.81173" data-paper-data="{&quot;origPos&quot;:null,&quot;index&quot;:null}" fill="url(#color-12)"/></g><g data-paper-data="{&quot;origRot&quot;:0,&quot;index&quot;:null}" stroke-linecap="round"><path d="M223.2759,179.68929l16.72053,0.17137l-13.98862,9.33036" data-paper-data="{&quot;origPos&quot;:null}" fill="url(#color-13)"/><path d="M256.78361,180.25993l-16.81173,-0.32127l13.99259,-9.15493" data-paper-data="{&quot;origPos&quot;:null,&quot;index&quot;:null}" fill="url(#color-14)"/></g><path d="M239.58134,192.37764c-6.87921,0 -12.4559,-5.52308 -12.4559,-12.33614c0,-6.81306 5.5767,-12.33614 12.4559,-12.33614c6.87921,0 12.4559,5.52308 12.4559,12.33614c0,6.81306 -5.5767,12.33614 -12.4559,12.33614z" fill="url(#color-15)" stroke-linecap="butt"/><g stroke-linecap="round"><path d="M235.04171,196.00343l5.02802,-16.04545l4.85854,16" data-paper-data="{&quot;origPos&quot;:null}" fill="url(#color-16)"/><path d="M244.8603,164.00344l-4.85854,16l-5.02802,-16.04545" data-paper-data="{&quot;origPos&quot;:null,&quot;index&quot;:null}" fill="url(#color-17)"/></g><g data-paper-data="{&quot;origRot&quot;:0}" stroke-linecap="round"><path d="M223.53718,183.36998l16.48902,-3.29389l-11.70202,11.94437" data-paper-data="{&quot;origPos&quot;:null}" fill="url(#color-18)"/><path d="M256.32147,176.61755l-16.36777,3.42073l11.66052,-12.11486" data-paper-data="{&quot;origPos&quot;:null,&quot;index&quot;:null}" fill="url(#color-19)"/></g><g data-paper-data="{&quot;origRot&quot;:0,&quot;index&quot;:null}" stroke-linecap="round"><path d="M228.32418,167.92342l11.70202,11.94438l-16.48901,-3.29389" data-paper-data="{&quot;origPos&quot;:null}" fill="url(#color-20)"/><path d="M251.61421,192.02045l-11.66052,-12.11486l16.36777,3.42074" data-paper-data="{&quot;origPos&quot;:null,&quot;index&quot;:null}" fill="url(#color-21)"/></g><path d="M230.92385,188.52331c-4.86434,-4.86434 -4.90225,-12.71306 -0.08469,-17.53062c4.81756,-4.81756 12.66629,-4.77965 17.53062,0.08468c4.86434,4.86434 4.90224,12.71306 0.08469,17.53062c-4.81756,4.81756 -12.66629,4.77964 -17.53062,-0.08469z" fill="url(#color-22)" stroke-linecap="butt"/><g stroke-linecap="round"><path d="M225.15002,187.87713l14.90119,-7.7905l-7.8782,14.74922" data-paper-data="{&quot;origPos&quot;:null}" fill="url(#color-23)"/><path d="M254.72022,172.19251l-14.74921,7.8782l7.7905,-14.90119" data-paper-data="{&quot;origPos&quot;:null,&quot;index&quot;:null}" fill="url(#color-24)"/></g><g data-paper-data="{&quot;origRot&quot;:0}" stroke-linecap="round"><path d="M225.94829,170.809l13.98863,9.33036l-16.72052,0.17136" data-paper-data="{&quot;origPos&quot;:null}" fill="url(#color-25)"/><path d="M253.90497,189.21629l-13.99258,-9.15494l16.81173,-0.32127" data-paper-data="{&quot;origPos&quot;:null,&quot;index&quot;:null}" fill="url(#color-26)"/></g><g data-paper-data="{&quot;origRot&quot;:0,&quot;index&quot;:null}" stroke-linecap="round"><path d="M240.25557,163.27155l-0.17137,16.72053l-9.33036,-13.98863" data-paper-data="{&quot;origPos&quot;:null}" fill="url(#color-27)"/><path d="M239.68494,196.77926l0.32126,-16.81173l9.15493,13.99258" data-paper-data="{&quot;origPos&quot;:null,&quot;index&quot;:null}" fill="url(#color-28)"/></g></g></g></svg>