<svg version="1.1" xmlns="http://www.w3.org/2000/svg" xmlns:xlink="http://www.w3.org/1999/xlink" width="33.56721" height="33.53311" viewBox="0,0,33.56721,33.53311"><defs><radialGradient cx="240.04584" cy="180.36354" r="12.4559" gradientUnits="userSpaceOnUse" id="color-1"><stop offset="0" stop-color="#ffffff"/><stop offset="1" stop-color="#ffffff" stop-opacity="0"/></radialGradient><linearGradient x1="239.96234" y1="179.95989" x2="256.00778" y2="179.95989" gradientUnits="userSpaceOnUse" id="color-2"><stop offset="0" stop-color="#ffffff"/><stop offset="1" stop-color="#ffffff" stop-opacity="0"/></linearGradient><linearGradient x1="240.0078" y1="180.02786" x2="223.96234" y2="180.02786" gradientUnits="userSpaceOnUse" id="color-3"><stop offset="0" stop-color="#ffffff"/><stop offset="1" stop-color="#ffffff" stop-opacity="0"/></linearGradient><linearGradient x1="240.00611" y1="179.95937" x2="247.71049" y2="194.03413" gradientUnits="userSpaceOnUse" id="color-4"><stop offset="0" stop-color="#ffffff"/><stop offset="1" stop-color="#ffffff" stop-opacity="0"/></linearGradient><linearGradient x1="239.96831" y1="180.03187" x2="232.26394" y2="165.9571" gradientUnits="userSpaceOnUse" id="color-5"><stop offset="0" stop-color="#ffffff"/><stop offset="1" stop-color="#ffffff" stop-opacity="0"/></linearGradient><linearGradient x1="239.94649" y1="179.95937" x2="232.24212" y2="194.03414" gradientUnits="userSpaceOnUse" id="color-6"><stop offset="0" stop-color="#ffffff"/><stop offset="1" stop-color="#ffffff" stop-opacity="0"/></linearGradient><linearGradient x1="239.98429" y1="180.03187" x2="247.68867" y2="165.9571" gradientUnits="userSpaceOnUse" id="color-7"><stop offset="0" stop-color="#ffffff"/><stop offset="1" stop-color="#ffffff" stop-opacity="0"/></linearGradient><radialGradient cx="239.80468" cy="180.29804" r="12.4559" gradientUnits="userSpaceOnUse" id="color-8"><stop offset="0" stop-color="#ffffff"/><stop offset="1" stop-color="#ffffff" stop-opacity="0"/></radialGradient><linearGradient x1="240.03106" y1="179.95358" x2="251.37691" y2="191.29942" gradientUnits="userSpaceOnUse" id="color-9"><stop offset="0" stop-color="#ffffff"/><stop offset="1" stop-color="#ffffff" stop-opacity="0"/></linearGradient><linearGradient x1="240.01514" y1="180.03378" x2="228.66929" y2="168.68792" gradientUnits="userSpaceOnUse" id="color-10"><stop offset="0" stop-color="#ffffff"/><stop offset="1" stop-color="#ffffff" stop-opacity="0"/></linearGradient><linearGradient x1="240.06238" y1="179.98416" x2="235.55784" y2="195.38434" gradientUnits="userSpaceOnUse" id="color-11"><stop offset="0" stop-color="#ffffff"/><stop offset="1" stop-color="#ffffff" stop-opacity="0"/></linearGradient><linearGradient x1="239.98438" y1="180.0087" x2="244.48893" y2="164.60851" gradientUnits="userSpaceOnUse" id="color-12"><stop offset="0" stop-color="#ffffff"/><stop offset="1" stop-color="#ffffff" stop-opacity="0"/></linearGradient><linearGradient x1="240.02022" y1="179.942" x2="224.62004" y2="184.44655" gradientUnits="userSpaceOnUse" id="color-13"><stop offset="0" stop-color="#ffffff"/><stop offset="1" stop-color="#ffffff" stop-opacity="0"/></linearGradient><linearGradient x1="239.99568" y1="180.01999" x2="255.39586" y2="175.51545" gradientUnits="userSpaceOnUse" id="color-14"><stop offset="0" stop-color="#ffffff"/><stop offset="1" stop-color="#ffffff" stop-opacity="0"/></linearGradient><radialGradient cx="239.58135" cy="180.04149" r="12.4559" gradientUnits="userSpaceOnUse" id="color-15"><stop offset="0" stop-color="#ffffff"/><stop offset="1" stop-color="#ffffff" stop-opacity="0"/></radialGradient><linearGradient x1="239.985" y1="179.95798" x2="239.985" y2="196.00344" gradientUnits="userSpaceOnUse" id="color-16"><stop offset="0" stop-color="#ffffff"/><stop offset="1" stop-color="#ffffff" stop-opacity="0"/></linearGradient><linearGradient x1="239.91703" y1="180.00345" x2="239.91703" y2="163.95798" gradientUnits="userSpaceOnUse" id="color-17"><stop offset="0" stop-color="#ffffff"/><stop offset="1" stop-color="#ffffff" stop-opacity="0"/></linearGradient><linearGradient x1="239.98552" y1="180.00175" x2="225.91076" y2="187.70614" gradientUnits="userSpaceOnUse" id="color-18"><stop offset="0" stop-color="#ffffff"/><stop offset="1" stop-color="#ffffff" stop-opacity="0"/></linearGradient><linearGradient x1="239.91302" y1="179.96396" x2="253.98778" y2="172.25959" gradientUnits="userSpaceOnUse" id="color-19"><stop offset="0" stop-color="#ffffff"/><stop offset="1" stop-color="#ffffff" stop-opacity="0"/></linearGradient><linearGradient x1="239.98552" y1="179.94212" x2="225.91075" y2="172.23776" gradientUnits="userSpaceOnUse" id="color-20"><stop offset="0" stop-color="#ffffff"/><stop offset="1" stop-color="#ffffff" stop-opacity="0"/></linearGradient><linearGradient x1="239.91302" y1="179.97992" x2="253.98778" y2="187.68431" gradientUnits="userSpaceOnUse" id="color-21"><stop offset="0" stop-color="#ffffff"/><stop offset="1" stop-color="#ffffff" stop-opacity="0"/></linearGradient><radialGradient cx="239.64684" cy="179.80034" r="12.4559" gradientUnits="userSpaceOnUse" id="color-22"><stop offset="0" stop-color="#ffffff"/><stop offset="1" stop-color="#ffffff" stop-opacity="0"/></radialGradient><linearGradient x1="239.99131" y1="180.02672" x2="228.64546" y2="191.37255" gradientUnits="userSpaceOnUse" id="color-23"><stop offset="0" stop-color="#ffffff"/><stop offset="1" stop-color="#ffffff" stop-opacity="0"/></linearGradient><linearGradient x1="239.9111" y1="180.01079" x2="251.25695" y2="168.66495" gradientUnits="userSpaceOnUse" id="color-24"><stop offset="0" stop-color="#ffffff"/><stop offset="1" stop-color="#ffffff" stop-opacity="0"/></linearGradient><linearGradient x1="239.96072" y1="180.05803" x2="224.56055" y2="175.55348" gradientUnits="userSpaceOnUse" id="color-25"><stop offset="0" stop-color="#ffffff"/><stop offset="1" stop-color="#ffffff" stop-opacity="0"/></linearGradient><linearGradient x1="239.93619" y1="179.98004" x2="255.33636" y2="184.48457" gradientUnits="userSpaceOnUse" id="color-26"><stop offset="0" stop-color="#ffffff"/><stop offset="1" stop-color="#ffffff" stop-opacity="0"/></linearGradient><linearGradient x1="240.04539" y1="179.99046" x2="235.54084" y2="164.59028" gradientUnits="userSpaceOnUse" id="color-27"><stop offset="0" stop-color="#ffffff"/><stop offset="1" stop-color="#ffffff" stop-opacity="0"/></linearGradient><linearGradient x1="239.9674" y1="179.96592" x2="244.47194" y2="195.3661" gradientUnits="userSpaceOnUse" id="color-28"><stop offset="0" stop-color="#ffffff"/><stop offset="1" stop-color="#ffffff" stop-opacity="0"/></linearGradient></defs><g transform="translate(-223.2164,-163.22074)"><g data-paper-data="{&quot;isPaintingLayer&quot;:true}" fill-rule="nonzero" stroke="none" stroke-width="0" stroke-linejoin="miter" stroke-miterlimit="10" stroke-dasharray="" stroke-dashoffset="0" style="mix-blend-mode: normal"><path d="M252.382,180.36354c0,6.87921 -5.52308,12.4559 -12.33614,12.4559c-6.81306,0 -12.33614,-5.5767 -12.33614,-12.4559c0,-6.87921 5.52308,-12.4559 12.33614,-12.4559c6.81306,0 12.33614,5.5767 12.33614,12.4559z" fill="url(#color-1)" stroke-linecap="butt"/><g stroke-linecap="round"><path d="M256.00778,184.90317l-16.04545,-5.02802l16,-4.85854" data-paper-data="{&quot;origPos&quot;:null}" fill="url(#color-2)"/><path d="M224.0078,175.08458l16,4.85854l-16.04545,5.02802" data-paper-data="{&quot;origPos&quot;:null,&quot;index&quot;:null}" fill="url(#color-3)"/></g><g data-paper-data="{&quot;origRot&quot;:0}" stroke-linecap="round"><path d="M243.37434,196.4077l-3.29389,-16.48902l11.94437,11.70202" data-paper-data="{&quot;origPos&quot;:null}" fill="url(#color-4)"/><path d="M236.62191,163.62339l3.42073,16.36777l-12.11486,-11.66052" data-paper-data="{&quot;origPos&quot;:null,&quot;index&quot;:null}" fill="url(#color-5)"/></g><g data-paper-data="{&quot;origRot&quot;:0,&quot;index&quot;:null}" stroke-linecap="round"><path d="M227.92779,191.6207l11.94438,-11.70202l-3.29389,16.48901" data-paper-data="{&quot;origPos&quot;:null}" fill="url(#color-6)"/><path d="M252.02482,168.33067l-12.11486,11.66052l3.42074,-16.36777" data-paper-data="{&quot;origPos&quot;:null,&quot;index&quot;:null}" fill="url(#color-7)"/></g><path d="M248.52766,189.02102c-4.86434,4.86434 -12.71306,4.90224 -17.53062,0.08468c-4.81756,-4.81756 -4.77965,-12.66629 0.08468,-17.53062c4.86434,-4.86434 12.71306,-4.90224 17.53062,-0.08468c4.81756,4.81756 4.77965,12.66629 -0.08468,17.53062z" fill="url(#color-8)" stroke-linecap="butt"/><g stroke-linecap="round"><path d="M247.88148,194.79484l-7.7905,-14.90119l14.74922,7.8782" data-paper-data="{&quot;origPos&quot;:null}" fill="url(#color-9)"/><path d="M232.19686,165.22464l7.8782,14.74922l-14.90119,-7.7905" data-paper-data="{&quot;origPos&quot;:null,&quot;index&quot;:null}" fill="url(#color-10)"/></g><g data-paper-data="{&quot;origRot&quot;:0}" stroke-linecap="round"><path d="M230.81335,193.99657l9.33037,-13.98863l0.17137,16.72052" data-paper-data="{&quot;origPos&quot;:null}" fill="url(#color-11)"/><path d="M249.22065,166.0399l-9.15494,13.99258l-0.32127,-16.81173" data-paper-data="{&quot;origPos&quot;:null,&quot;index&quot;:null}" fill="url(#color-12)"/></g><g data-paper-data="{&quot;origRot&quot;:0,&quot;index&quot;:null}" stroke-linecap="round"><path d="M223.27591,179.6893l16.72053,0.17137l-13.98862,9.33036" data-paper-data="{&quot;origPos&quot;:null}" fill="url(#color-13)"/><path d="M256.78362,180.25994l-16.81173,-0.32127l13.99259,-9.15493" data-paper-data="{&quot;origPos&quot;:null,&quot;index&quot;:null}" fill="url(#color-14)"/></g><path d="M239.58135,192.37765c-6.87921,0 -12.4559,-5.52308 -12.4559,-12.33614c0,-6.81306 5.5767,-12.33614 12.4559,-12.33614c6.87921,0 12.4559,5.52308 12.4559,12.33614c0,6.81306 -5.5767,12.33614 -12.4559,12.33614z" fill="url(#color-15)" stroke-linecap="butt"/><g stroke-linecap="round"><path d="M235.04172,196.00344l5.02802,-16.04545l4.85854,16" data-paper-data="{&quot;origPos&quot;:null}" fill="url(#color-16)"/><path d="M244.86031,164.00345l-4.85854,16l-5.02802,-16.04545" data-paper-data="{&quot;origPos&quot;:null,&quot;index&quot;:null}" fill="url(#color-17)"/></g><g data-paper-data="{&quot;origRot&quot;:0}" stroke-linecap="round"><path d="M223.53719,183.36999l16.48902,-3.29389l-11.70202,11.94437" data-paper-data="{&quot;origPos&quot;:null}" fill="url(#color-18)"/><path d="M256.32147,176.61756l-16.36777,3.42073l11.66052,-12.11486" data-paper-data="{&quot;origPos&quot;:null,&quot;index&quot;:null}" fill="url(#color-19)"/></g><g data-paper-data="{&quot;origRot&quot;:0,&quot;index&quot;:null}" stroke-linecap="round"><path d="M228.32419,167.92342l11.70202,11.94438l-16.48901,-3.29389" data-paper-data="{&quot;origPos&quot;:null}" fill="url(#color-20)"/><path d="M251.61422,192.02046l-11.66052,-12.11486l16.36777,3.42074" data-paper-data="{&quot;origPos&quot;:null,&quot;index&quot;:null}" fill="url(#color-21)"/></g><path d="M230.92386,188.52332c-4.86434,-4.86434 -4.90225,-12.71306 -0.08469,-17.53062c4.81756,-4.81756 12.66629,-4.77965 17.53062,0.08468c4.86434,4.86434 4.90224,12.71306 0.08469,17.53062c-4.81756,4.81756 -12.66629,4.77964 -17.53062,-0.08469z" fill="url(#color-22)" stroke-linecap="butt"/><g stroke-linecap="round"><path d="M225.15003,187.87713l14.90119,-7.7905l-7.8782,14.74922" data-paper-data="{&quot;origPos&quot;:null}" fill="url(#color-23)"/><path d="M254.72023,172.19252l-14.74921,7.8782l7.7905,-14.90119" data-paper-data="{&quot;origPos&quot;:null,&quot;index&quot;:null}" fill="url(#color-24)"/></g><g data-paper-data="{&quot;origRot&quot;:0}" stroke-linecap="round"><path d="M225.9483,170.80901l13.98863,9.33036l-16.72052,0.17136" data-paper-data="{&quot;origPos&quot;:null}" fill="url(#color-25)"/><path d="M253.90498,189.21629l-13.99258,-9.15494l16.81173,-0.32127" data-paper-data="{&quot;origPos&quot;:null,&quot;index&quot;:null}" fill="url(#color-26)"/></g><g data-paper-data="{&quot;origRot&quot;:0,&quot;index&quot;:null}" stroke-linecap="round"><path d="M240.29809,163.24615l-0.17137,16.72053l-9.33036,-13.98863" data-paper-data="{&quot;origPos&quot;:null}" fill="url(#color-27)"/><path d="M239.72746,196.75386l0.32126,-16.81173l9.15493,13.99258" data-paper-data="{&quot;origPos&quot;:null,&quot;index&quot;:null}" fill="url(#color-28)"/></g></g></g></svg>